<?xml version="1.0" encoding="UTF-8"?>
<svg version="1.1" xmlns="http://www.w3.org/2000/svg" width="1500" height="1500">
<path d="M0 0 C364.98 0 729.96 0 1106 0 C1106.06058594 88.03394531 1106.12117188 176.06789063 1106.18359375 266.76953125 C1106.22164718 319.03810133 1106.25976281 371.30667119 1106.29914629 423.57524025 C1106.30038352 425.21776164 1106.30162069 426.86028303 1106.30285783 428.50280441 C1106.30378831 429.73816849 1106.30378831 429.73816849 1106.30473759 430.99848943 C1106.32665129 460.0961212 1106.34849984 489.19375301 1106.37023433 518.29138492 C1106.3723094 521.06868052 1106.37438619 523.84597611 1106.37646339 526.62327171 C1106.4082749 569.16496424 1106.43925134 611.70665717 1106.46777344 654.24835205 C1106.4683871 655.16362458 1106.46900076 656.07889711 1106.46963302 657.02190517 C1106.4795223 671.77938332 1106.48934063 686.53686153 1106.49914955 701.29433973 C1106.52739356 743.7857214 1106.55615977 786.27710241 1106.58840275 828.76848125 C1106.58906515 829.6417597 1106.58972755 830.51503815 1106.59041002 831.41477959 C1106.60495857 850.58254375 1106.61977712 869.75030769 1106.63485154 888.91807145 C1106.64091165 896.62982092 1106.64693288 904.34157042 1106.65294075 912.05331993 C1106.65359923 912.8973522 1106.65425772 913.74138447 1106.65493616 914.61099348 C1106.67615469 941.83329249 1106.69420382 969.05559248 1106.71060037 996.27789479 C1106.72712344 1023.68628396 1106.74673478 1051.09466903 1106.77067431 1078.50305278 C1106.77397742 1082.2856738 1106.77724489 1086.06829484 1106.78049088 1089.85091591 C1106.7811285 1090.59245473 1106.78176613 1091.33399355 1106.78242307 1092.09800324 C1106.79245037 1103.86701308 1106.7991117 1115.63602235 1106.80438773 1127.40503517 C1106.80963701 1138.96148015 1106.81848979 1150.51791633 1106.83098774 1162.07435606 C1106.83757597 1168.26306076 1106.84253617 1174.45175563 1106.84316199 1180.64046405 C1106.8437606 1186.25949048 1106.84886645 1191.87849325 1106.85772062 1197.49751258 C1106.8601034 1199.52821401 1106.86077826 1201.55891826 1106.8596265 1203.58962077 C1106.85831121 1206.32801883 1106.86304249 1209.06633942 1106.86938947 1211.80472881 C1106.86661504 1212.99987236 1106.86661504 1212.99987236 1106.86378455 1214.21916023 C1106.87674151 1217.41333127 1106.98227739 1219.94683217 1108 1223 C742.36 1223 376.72 1223 0 1223 C0 819.41 0 415.82 0 0 Z M98 182 C99.28357687 184.57126528 100.56759506 187.14230857 101.85186768 189.71322632 C102.21357119 190.43790572 102.5752747 191.16258512 102.94793892 191.90922451 C105.34636611 196.7094011 107.7779229 201.4883289 110.296875 206.2265625 C110.65231888 206.89852661 111.00776276 207.57049072 111.37397766 208.26281738 C112.49727445 210.38463596 113.62344435 212.50491016 114.75 214.625 C115.54875117 216.13134531 116.34749785 217.637693 117.14624023 219.14404297 C121.85635394 228.01716222 126.62104589 236.85805782 131.45654297 245.66357422 C135.8352591 253.6540958 140.10805281 261.6994546 144.375 269.75 C150.15757024 280.65938014 155.97147022 291.55062932 161.83374023 302.41748047 C167.94959482 313.75465528 174.02934714 325.11109791 180.10888672 336.46777344 C183.23790961 342.31257107 186.36912691 348.15619333 189.5 354 C190.75000903 356.33332849 192.00000903 358.66666183 193.25 361 C193.86875 362.155 194.4875 363.31 195.125 364.5 C215.75 403 236.375 441.5 257 480 C380.42 480.33 503.84 480.66 631 481 C636.61 491.56 642.22 502.12 648 513 C652.96400198 521.79144749 652.96400198 521.79144749 657.95703125 530.56640625 C661.6456979 537.08544463 665.06243018 543.73958073 668.49267578 550.39697266 C671.91144635 556.99900594 675.49337435 563.48600388 679.1875 569.9375 C684.49698952 579.21839389 689.56672335 588.61054865 694.5625 598.0625 C694.92648895 598.751091 695.29047791 599.43968201 695.66549683 600.1491394 C696.02781403 600.83460846 696.39013123 601.52007751 696.76342773 602.22631836 C697.48415341 603.58971209 698.20493725 604.95307508 698.92578125 606.31640625 C699.27690475 606.98053024 699.62802826 607.64465424 699.98979187 608.3289032 C703.96152347 615.83152908 708.03201577 623.27919874 712.11328125 630.72265625 C714.14621248 634.430996 716.16233823 638.1479175 718.16796875 641.87109375 C723.43105637 651.63908109 728.7472894 661.36470764 734.25 671 C740.49038508 681.93471138 746.39426828 693.0396444 752.26464844 704.17578125 C752.61573166 704.8411792 752.96681488 705.50657715 753.32853699 706.19213867 C754.28435154 708.0049363 755.23807538 709.81883583 756.19165039 711.6328125 C758.06580649 715.12253315 760.03472538 718.56076942 762 722 C638.58 722 515.16 722 388 722 C389.5859578 726.7578734 391.36322597 730.87901788 393.7109375 735.25 C394.07482574 735.93602295 394.43871399 736.6220459 394.81362915 737.32885742 C395.99616086 739.55505024 397.18541579 741.77756895 398.375 744 C399.20210636 745.55323451 400.02892711 747.10662115 400.85546875 748.66015625 C405.64032804 757.64190184 410.47890566 766.5930282 415.38037109 775.51171875 C420.4174958 784.70322622 425.29427665 793.97895049 430.18652344 803.24804688 C434.73501196 811.86346351 439.30685288 820.46218434 444 829 C449.10132433 838.28037534 454.05694236 847.63475539 459 857 C463.96488322 866.40627268 468.94221382 875.8020288 474.0625 885.125 C478.91368556 893.9579952 483.6557513 902.84608715 488.375 911.75 C494.15757024 922.65938014 499.97147022 933.55062932 505.83374023 944.41748047 C511.94959482 955.75465528 518.02934714 967.11109791 524.10888672 978.46777344 C525.98994062 981.9814516 527.8718354 985.49467894 529.75390625 989.0078125 C530.37313965 990.16369873 530.99237305 991.31958496 531.63037109 992.51049805 C532.86881444 994.82194629 534.10741909 997.13330812 535.34619141 999.44458008 C538.2830934 1004.92486242 541.21795743 1010.40619499 544.14590454 1015.89126587 C545.53301976 1018.48952883 546.92125049 1021.08719499 548.30957031 1023.68481445 C548.9727275 1024.92637773 549.63533459 1026.16823501 550.29736328 1027.41040039 C551.21378723 1029.12980633 552.13223809 1030.8481315 553.05078125 1032.56640625 C553.57325439 1033.54552979 554.09572754 1034.52465332 554.6340332 1035.53344727 C556.03046233 1038.13469696 556.03046233 1038.13469696 558 1041 C560.50068727 1041.2979297 562.7548522 1041.39673378 565.25829506 1041.36914349 C566.39887627 1041.37433579 566.39887627 1041.37433579 567.56249952 1041.37963298 C570.13728783 1041.38764011 572.71152511 1041.37406059 575.2862854 1041.36076355 C577.14004822 1041.36207049 578.99381051 1041.36469485 580.84756982 1041.36853105 C585.96242799 1041.37526987 591.0770993 1041.36319688 596.19193363 1041.34819686 C601.69978918 1041.33528949 607.20763346 1041.33962219 612.71549988 1041.34190369 C622.26516865 1041.34347979 631.81477612 1041.33403546 641.36442947 1041.31719017 C655.17176237 1041.29285026 668.9790655 1041.28500004 682.78641753 1041.2812262 C705.18575303 1041.27465383 727.58505865 1041.2546971 749.984375 1041.22631836 C771.74837066 1041.19877631 793.51235759 1041.17751997 815.27636719 1041.16479492 C816.28221927 1041.16420305 816.28221927 1041.16420305 817.30839159 1041.16359923 C824.04235885 1041.15964375 830.77632618 1041.1558163 837.51029357 1041.15208265 C894.00688537 1041.12074612 950.50344094 1041.06779515 1007 1041 C1005.67869644 1037.65089897 1004.26694805 1034.44691687 1002.6015625 1031.25390625 C1002.12895996 1030.34664795 1001.65635742 1029.43938965 1001.16943359 1028.50463867 C1000.65977051 1027.53373291 1000.15010742 1026.56282715 999.625 1025.5625 C998.8198999 1024.02396362 998.8198999 1024.02396362 997.99853516 1022.4543457 C994.05297582 1014.94094427 990.01064541 1007.48462305 985.92431641 1000.04711914 C981.19366398 991.41159697 976.5953248 982.70797536 972 974 C967.05716792 964.63464065 962.10132122 955.28036967 957 946 C951.49052776 935.97711829 946.1519578 925.8665077 940.81347656 915.75195312 C936.26498804 907.13653649 931.69314712 898.53781566 927 890 C921.49052776 879.97711829 916.1519578 869.8665077 910.81347656 859.75195312 C906.26498804 851.13653649 901.69314712 842.53781566 897 834 C891.49052776 823.97711829 886.1519578 813.8665077 880.81347656 803.75195312 C876.26498804 795.13653649 871.69314712 786.53781566 867 778 C861.89867567 768.71962466 856.94305764 759.36524461 852 750 C847.03511678 740.59372732 842.05778618 731.1979712 836.9375 721.875 C832.08631444 713.0420048 827.3442487 704.15391285 822.625 695.25 C816.84242976 684.34061986 811.02852978 673.44937068 805.16625977 662.58251953 C799.05040518 651.24534472 792.97065286 639.88890209 786.89111328 628.53222656 C783.76209039 622.68742893 780.63087309 616.84380667 777.5 611 C776.24999097 608.66667151 774.99999097 606.33333817 773.75 604 C772.821875 602.2675 772.821875 602.2675 771.875 600.5 C710 485 648.125 369.5 584.37426758 250.49853516 C583.12681743 248.17002654 581.87925919 245.84157582 580.6315918 243.51318359 C577.46668031 237.60650585 574.30377443 231.69877313 571.14453125 225.7890625 C565.16896813 214.61343939 559.17988285 203.44540515 553.125 192.3125 C552.61880127 191.37937988 552.11260254 190.44625977 551.59106445 189.48486328 C551.13046631 188.64036621 550.66986816 187.79586914 550.1953125 186.92578125 C549.59227295 185.81843628 549.59227295 185.81843628 548.97705078 184.6887207 C548.11188929 183.02591179 548.11188929 183.02591179 547 182 C544.612114 181.90124804 542.2531601 181.86821012 539.86475277 181.87695217 C539.10551914 181.87579833 538.34628551 181.87464448 537.5640448 181.87345567 C534.98733158 181.87078186 532.41067925 181.8753174 529.83396912 181.87974548 C527.98107055 181.87930994 526.12817204 181.87843534 524.27527386 181.87715632 C519.15821878 181.87490809 514.04118442 181.87893709 508.92413199 181.88393438 C503.41557731 181.88823402 497.9070239 181.8867928 492.39846802 181.8860321 C482.84607603 181.88550656 473.29369085 181.88865654 463.74130058 181.89426994 C449.92997484 181.90238083 436.1186524 181.90499974 422.30732454 181.90625793 C399.90190269 181.9084491 377.49648417 181.91510238 355.09106445 181.92456055 C333.32023131 181.93374024 311.54939914 181.94082617 289.77856445 181.94506836 C289.10786487 181.94519989 288.4371653 181.94533141 287.74614149 181.94546692 C281.01089455 181.94678541 274.2756476 181.94806123 267.54040065 181.94930578 C211.02693121 181.95975248 154.5134658 181.97740389 98 182 Z " fill="#000000" transform="translate(191,136)"/>
<path d="M0 0 C0.99 0.33 1.98 0.66 3 1 C2.01 1.66 1.02 2.32 0 3 C0 2.01 0 1.02 0 0 Z " fill="#000000" transform="translate(177,213)"/>
</svg>
